<?xml version="1.0" encoding="iso-8859-1"?>
<!-- Uploaded to: SVG Repo, www.svgrepo.com, Generator: SVG Repo Mixer Tools -->
<svg fill="#000000" height="800px" width="800px" version="1.1" id="Layer_1" xmlns="http://www.w3.org/2000/svg" xmlns:xlink="http://www.w3.org/1999/xlink" 
	 viewBox="0 0 512.001 512.001" xml:space="preserve">
<g>
	<g>
		<path d="M450.334,287.166v-20.52c0-46.35-8.109-86.908-24.1-120.551c-13.061-27.475-31.324-50.358-54.283-68.012
			c-39.216-30.153-78.579-34.451-80.235-34.62l-0.79-0.08h-74.861V16.205h-91.057v85.698h29.858v29.906H104.72v55.432H59.344
			L0,294.329l56.707,201.466h227.665l56.695-201.466L281.736,187.24h-45.383v-55.432h-50.146v-29.905h29.858V74.725h73.128
			c4.673,0.631,33.962,5.374,63.653,28.203c43.892,33.749,66.147,88.832,66.147,163.718v20.582
			c-15.458,16.208-61.667,69.797-61.667,131.231c0,42.644,34.694,77.338,77.338,77.338c42.644,0,77.338-34.694,77.338-77.338
			C512,356.297,465.896,303.287,450.334,287.166z M225.38,351.01H115.692v-52.236H225.38V351.01z M236.352,218.584v-0.002h26.917
			l43.052,77.706h-49.601v-28.855H84.351v28.855H34.746l43.061-77.706h26.912v0.002H236.352z"/>
	</g>
</g>
</svg>