<svg width="1080" height="1080" viewBox="0 0 1080 1080" fill="currentColor" xmlns="http://www.w3.org/2000/svg">
<rect width="1080" height="1080" fill="none" />
<path d="M723.15 719.4V719.04L727.398 717.6V672.528L723.15 671.664V671.304L734.31 667.344H734.382V674.328C738.342 670.656 742.518 667.344 747.99 667.344C755.766 667.344 762.534 673.464 762.534 685.344C762.534 698.376 754.182 706.08 744.03 706.08C739.854 706.08 736.038 704.64 734.382 703.992V717.6L740.07 719.04V719.4H723.15ZM734.382 699.528C735.894 701.832 738.918 705.216 744.102 705.216C750.366 705.216 755.406 700.032 755.406 688.872C755.406 676.992 749.646 671.448 743.166 671.448C739.638 671.448 736.758 673.104 734.382 675.336V699.528ZM774.694 706.08C769.006 706.08 765.766 702.624 765.766 699.24C765.766 697.152 766.774 695.928 771.31 694.056L785.854 688.008V677.712C785.854 671.88 783.406 669.792 779.518 669.792C775.414 669.792 772.606 672.168 772.606 675.912C772.606 677.568 773.038 679.08 773.47 680.232C773.038 680.592 772.102 681.168 770.662 681.168C768.718 681.168 767.422 680.088 767.422 678.144C767.422 676.2 768.79 674.4 773.254 671.304C777.43 668.496 780.094 667.344 782.974 667.344C788.518 667.344 792.838 670.944 792.838 677.568V700.248C792.838 702.048 794.062 703.2 795.718 703.2C796.942 703.2 797.734 702.912 798.742 702.48V702.84C795.934 704.424 793.486 705.864 790.966 705.864C787.798 705.864 785.854 703.848 785.854 700.104V698.736C783.982 702.552 780.094 706.08 774.694 706.08ZM772.318 697.08C772.318 699.96 774.838 702.336 778.726 702.336C782.182 702.336 784.918 699.96 785.854 697.368V688.872L776.638 692.76C773.254 694.2 772.318 695.28 772.318 697.08ZM799.58 705V704.64L803.828 703.2V672.528L799.58 671.664V671.304L810.74 667.344H810.812V673.608C813.692 670.728 817.652 667.344 821.324 667.344C823.628 667.344 825.14 668.712 825.14 671.088C825.14 672.672 824.492 673.752 823.772 674.4C821.9 673.392 819.308 672.312 816.716 672.312C814.412 672.312 812.468 673.104 810.812 674.472V703.2L815.996 704.64V705H799.58ZM827.072 705V704.64L831.32 703.2V672.528L827.072 671.736V671.376L838.232 667.344H838.304V703.2L842.552 704.64V705H827.072ZM830.312 658.704C830.312 656.256 832.112 654.456 834.776 654.456C837.368 654.456 839.24 656.256 839.24 658.704C839.24 661.152 837.368 663.024 834.776 663.024C832.112 663.024 830.312 661.152 830.312 658.704ZM858.245 706.08C854.357 706.08 850.829 705.072 849.317 704.352L847.373 692.976H847.805C849.893 699.816 855.293 704.424 862.421 704.424C866.741 704.424 868.829 702.192 868.829 699.24C868.829 696 866.669 693.408 859.253 689.808L856.157 688.224C848.309 684.336 846.077 681.744 846.077 678.288C846.077 673.032 852.269 667.344 861.629 667.344C866.021 667.344 869.405 668.352 871.493 669.288V679.152H871.133C869.981 672.888 865.301 668.496 859.109 668.496C854.501 668.496 851.837 670.872 851.837 673.896C851.837 676.776 853.925 679.224 860.045 682.248L862.709 683.472C870.053 687.072 873.077 690.312 873.077 695.064C873.077 700.536 868.109 706.08 858.245 706.08Z" fill="currentColor"/>
<path d="M358.175 663V662.275L366.73 659.375V568.605L358.175 566.865V566.14L380.65 558.165H380.795V572.23C388.77 564.835 397.18 558.165 408.2 558.165C423.86 558.165 437.49 570.49 437.49 594.415C437.49 620.66 420.67 636.175 400.225 636.175C391.815 636.175 384.13 633.275 380.795 631.97V659.375L392.25 662.275V663H358.175ZM380.795 622.98C383.84 627.62 389.93 634.435 400.37 634.435C412.985 634.435 423.135 623.995 423.135 601.52C423.135 577.595 411.535 566.43 398.485 566.43C391.38 566.43 385.58 569.765 380.795 574.26V622.98ZM461.979 636.175C450.524 636.175 443.999 629.215 443.999 622.4C443.999 618.195 446.029 615.73 455.164 611.96L484.454 599.78V579.045C484.454 567.3 479.524 563.095 471.694 563.095C463.429 563.095 457.774 567.88 457.774 575.42C457.774 578.755 458.644 581.8 459.514 584.12C458.644 584.845 456.759 586.005 453.859 586.005C449.944 586.005 447.334 583.83 447.334 579.915C447.334 576 450.089 572.375 459.079 566.14C467.489 560.485 472.854 558.165 478.654 558.165C489.819 558.165 498.519 565.415 498.519 578.755V624.43C498.519 628.055 500.984 630.375 504.319 630.375C506.784 630.375 508.379 629.795 510.409 628.925V629.65C504.754 632.84 499.824 635.74 494.749 635.74C488.369 635.74 484.454 631.68 484.454 624.14V621.385C480.684 629.07 472.854 636.175 461.979 636.175ZM457.194 618.05C457.194 623.85 462.269 628.635 470.099 628.635C477.059 628.635 482.569 623.85 484.454 618.63V601.52L465.894 609.35C459.079 612.25 457.194 614.425 457.194 618.05ZM512.096 634V633.275L520.651 630.375V568.605L512.096 566.865V566.14L534.571 558.165H534.716V570.78C540.516 564.98 548.491 558.165 555.886 558.165C560.526 558.165 563.571 560.92 563.571 565.705C563.571 568.895 562.266 571.07 560.816 572.375C557.046 570.345 551.826 568.17 546.606 568.17C541.966 568.17 538.051 569.765 534.716 572.52V630.375L545.156 633.275V634H512.096ZM568.75 634V633.275L577.16 630.375V565.995H565.705V565.27L577.16 561.79C577.305 534.82 591.225 521.77 603.985 521.77C609.785 521.77 612.975 524.67 612.975 529.02C612.975 531.92 611.38 533.95 610.655 534.965C606.885 533.08 601.085 530.905 594.85 530.905C587.455 530.905 584.12 534.095 584.12 541.345C584.12 547.87 586.73 555.41 589.05 560.34H610.22V565.995H591.37V630.375L601.52 633.275V634H568.75ZM641.592 636.175C629.992 636.175 622.597 628.2 622.597 615.44V568.315L614.332 566.575V565.85L636.517 558.165H636.662V613.12C636.662 623.125 642.317 628.055 650.437 628.055C657.252 628.055 662.762 625.3 670.302 620.08V568.315L661.602 566.575V565.85L684.222 558.165H684.367V627.475L692.922 627.62V628.345L670.447 636.175H670.302V621.82C658.557 630.52 649.277 636.175 641.592 636.175ZM697.311 634V633.275L705.866 630.375V568.605L697.311 566.865V566.14L719.786 558.165H719.931V572.375C731.386 563.82 740.666 558.165 748.351 558.165C757.486 558.165 764.156 563.53 766.186 572.81C778.511 563.675 787.791 558.165 795.186 558.165C806.206 558.165 813.601 565.995 813.601 578.9V630.375L821.866 633.275V634H791.126V633.275L799.536 630.375V581.22C799.536 571.07 793.736 566.285 786.196 566.285C779.961 566.285 774.451 568.895 766.476 574.55C766.621 575.855 766.766 577.305 766.766 578.9V630.375L774.886 633.275V634H744.291V633.275L752.701 630.375V581.22C752.701 571.07 746.901 566.285 739.216 566.285C732.981 566.285 727.471 569.04 719.931 574.26V630.375L728.341 633.275V634H697.311ZM851.564 636.175C843.734 636.175 836.629 634.145 833.584 632.695L829.669 609.785H830.539C834.744 623.56 845.619 632.84 859.974 632.84C868.674 632.84 872.879 628.345 872.879 622.4C872.879 615.875 868.529 610.655 853.594 603.405L847.359 600.215C831.554 592.385 827.059 587.165 827.059 580.205C827.059 569.62 839.529 558.165 858.379 558.165C867.224 558.165 874.039 560.195 878.244 562.08V581.945H877.519C875.199 569.33 865.774 560.485 853.304 560.485C844.024 560.485 838.659 565.27 838.659 571.36C838.659 577.16 842.864 582.09 855.189 588.18L860.554 590.645C875.344 597.895 881.434 604.42 881.434 613.99C881.434 625.01 871.429 636.175 851.564 636.175Z" fill="currentColor"/>
<path d="M228.67 533.175L195.465 460.53L189.81 458.065V457.34H219.97V458.065L211.125 460.53L235.34 514.47L242.155 497.94C255.495 465.46 251.435 460.385 241.285 458.355L239.835 458.065V457.34H265.645V458.065L259.99 460.53L228.96 533.175H228.67ZM264.56 531V530.275L273.115 527.375V465.605L264.56 464.01V463.285L287.035 455.165H287.18V527.375L295.735 530.275V531H264.56ZM271.085 437.765C271.085 432.835 274.71 429.21 280.075 429.21C285.295 429.21 289.065 432.835 289.065 437.765C289.065 442.695 285.295 446.465 280.075 446.465C274.71 446.465 271.085 442.695 271.085 437.765ZM327.338 533.175C319.508 533.175 312.403 531.145 309.358 529.695L305.443 506.785H306.313C310.518 520.56 321.393 529.84 335.748 529.84C344.448 529.84 348.653 525.345 348.653 519.4C348.653 512.875 344.303 507.655 329.368 500.405L323.133 497.215C307.328 489.385 302.833 484.165 302.833 477.205C302.833 466.62 315.303 455.165 334.153 455.165C342.998 455.165 349.813 457.195 354.018 459.08V478.945H353.293C350.973 466.33 341.548 457.485 329.078 457.485C319.798 457.485 314.433 462.27 314.433 468.36C314.433 474.16 318.638 479.09 330.963 485.18L336.328 487.645C351.118 494.895 357.208 501.42 357.208 510.99C357.208 522.01 347.203 533.175 327.338 533.175ZM363.114 531V530.275L371.669 527.375V465.605L363.114 464.01V463.285L385.589 455.165H385.734V527.375L394.289 530.275V531H363.114ZM369.639 437.765C369.639 432.835 373.264 429.21 378.629 429.21C383.849 429.21 387.619 432.835 387.619 437.765C387.619 442.695 383.849 446.465 378.629 446.465C373.264 446.465 369.639 442.695 369.639 437.765ZM423.718 533.175C414.583 533.175 408.348 527.665 408.348 518.095V462.995H400.228V462.125C409.943 458.645 418.933 449.365 421.833 439.795H422.558V457.34H441.988V462.995H422.558V516.355C422.558 522.155 425.748 525.635 432.128 525.635C437.203 525.635 440.393 523.315 444.308 520.125L444.888 520.85C435.463 529.405 430.533 533.175 423.718 533.175ZM483.331 533.175C462.451 533.175 447.951 518.82 447.951 496.345C447.951 471.695 464.481 455.165 485.796 455.165C501.746 455.165 511.461 464.01 512.476 475.61H463.176C462.451 478.8 462.161 482.425 462.161 486.34C462.161 509.685 474.196 523.315 492.176 523.315C505.516 523.315 511.751 516.935 515.666 503.885L516.536 504.175C513.056 518.24 505.661 533.175 483.331 533.175ZM463.611 474.16L497.686 473.58C496.381 463.575 490.581 457.195 481.736 457.195C472.601 457.195 466.221 463.575 463.611 474.16ZM546.396 533.175C538.566 533.175 531.461 531.145 528.416 529.695L524.501 506.785H525.371C529.576 520.56 540.451 529.84 554.806 529.84C563.506 529.84 567.711 525.345 567.711 519.4C567.711 512.875 563.361 507.655 548.426 500.405L542.191 497.215C526.386 489.385 521.891 484.165 521.891 477.205C521.891 466.62 534.361 455.165 553.211 455.165C562.056 455.165 568.871 457.195 573.076 459.08V478.945H572.351C570.031 466.33 560.606 457.485 548.136 457.485C538.856 457.485 533.491 462.27 533.491 468.36C533.491 474.16 537.696 479.09 550.021 485.18L555.386 487.645C570.176 494.895 576.266 501.42 576.266 510.99C576.266 522.01 566.261 533.175 546.396 533.175Z" fill="currentColor"/>
<path d="M108.06 574V405.36H149.2V407.4H124.21V571.96H149.2V574H108.06Z" fill="currentColor"/>
<path d="M970.88 705H929.74V702.96H954.73V538.4H929.74V536.36H970.88V705Z" fill="currentColor"/>
</svg>
